<?xml version="1.0" encoding="utf-8" standalone="no"?>
<!DOCTYPE svg PUBLIC "-//W3C//DTD SVG 1.1//EN"
  "http://www.w3.org/Graphics/SVG/1.1/DTD/svg11.dtd">
<!-- Created with matplotlib (http://matplotlib.org/) -->
<svg height="667pt" version="1.1" viewBox="0 0 1080 667" width="1080pt" xmlns="http://www.w3.org/2000/svg" xmlns:xlink="http://www.w3.org/1999/xlink">
 <defs>
  <style type="text/css">
*{stroke-linecap:butt;stroke-linejoin:round;}
  </style>
 </defs>
 <g id="figure_1">
  <g id="patch_1">
   <path d="
M0 667.44
L1080 667.44
L1080 0
L0 0
z
" style="fill:#ffffff;"/>
  </g>
  <g id="axes_1">
   <g id="patch_2">
    <path d="
M135 600.696
L972 600.696
L972 66.744
L135 66.744
z
" style="fill:#ffffff;"/>
   </g>
   <g id="line2d_1">
    <path clip-path="url(#p048f99bc99)" d="
M135 110.105
L136.288 109.73
L137.575 110.238
L138.863 111.015
L140.151 110.945
L141.438 111.152
L142.726 109.694
L144.014 110.409
L145.302 109.643
L146.589 109.474
L147.877 109.836
L149.165 110.349
L150.452 110.357
L151.74 111.044
L153.028 109.33
L154.315 111.141
L155.603 109.288
L156.891 110.147
L159.466 110.796
L160.754 110.686
L162.042 111.299
L163.329 111.755
L164.617 111.68
L165.905 112.241
L167.192 110.586
L168.48 110.539
L169.768 108.906
L171.055 110.52
L172.343 110.414
L173.631 111.606
L174.918 111.563
L176.206 110.796
L177.494 110.833
L178.782 111.793
L180.069 110.917
L181.357 110.52
L182.645 111.034
L183.932 111.724
L185.22 111.901
L187.795 110.223
L189.083 111.65
L190.371 111.121
L191.658 110.425
L192.946 111.788
L194.234 111.182
L195.522 110.243
L196.809 111.28
L198.097 110.344
L199.385 110.408
L200.672 110.854
L201.96 109.998
L203.248 110.244
L204.535 110.048
L205.823 110.413
L207.111 110.211
L208.398 110.192
L209.686 109.764
L210.974 109.915
L212.262 111.112
L213.549 111.184
L214.837 110.559
L216.125 110.672
L217.412 110.989
L218.7 111.637
L219.988 110.114
L221.275 110.141
L222.563 111.573
L223.851 111.104
L225.138 110.079
L226.426 110.012
L227.714 111.148
L229.002 110.768
L230.289 110.91
L231.577 110.17
L232.865 111.123
L234.152 110.97
L235.44 111.055
L238.015 111.386
L239.303 110.762
L240.591 111.083
L241.878 110.154
L244.454 110.917
L245.742 109.796
L248.317 110.563
L252.18 110.202
L253.468 111.158
L254.755 111.95
L256.043 110.931
L257.331 110.42
L258.618 111.056
L259.906 110.887
L261.194 110.395
L262.482 111.268
L263.769 110.041
L265.057 111.023
L266.345 110.59
L267.632 110.404
L268.92 110.943
L270.208 110.565
L272.783 110.192
L274.071 110.724
L275.358 110.903
L276.646 110.497
L277.934 111.038
L279.222 111.351
L280.509 111.046
L281.797 109.926
L283.085 110.093
L284.372 110.115
L285.66 110.529
L286.948 109.988
L288.235 110.264
L289.523 110.348
L290.811 109.637
L292.098 109.977
L293.386 109.601
L294.674 109.609
L297.249 108.764
L298.537 109.472
L299.825 109.176
L301.112 109.351
L302.4 108.97
L303.688 109.324
L306.263 110.766
L307.551 109.883
L308.838 109.777
L310.126 110.238
L311.414 110.01
L312.702 110.386
L315.277 109.057
L317.852 110.477
L319.14 109.852
L321.715 109.099
L323.003 109.986
L324.291 109.865
L325.578 110.407
L326.866 109.049
L328.154 110.669
L329.442 110.333
L330.729 109.656
L332.017 110.222
L333.305 110.296
L334.592 109.663
L335.88 110.03
L337.168 109.309
L338.455 109.64
L341.031 110.787
L342.318 110.827
L343.606 110.378
L344.894 110.156
L346.182 109.505
L347.469 109.757
L348.757 109.579
L350.045 110.48
L351.332 109.796
L352.62 109.951
L353.908 110.501
L355.195 110.83
L356.483 111.438
L357.771 110.887
L359.058 111.496
L360.346 112.409
L361.634 113.616
L362.922 114.089
L365.497 116.675
L366.785 115.864
L368.072 117.195
L369.36 118.161
L370.648 118.852
L371.935 118.944
L374.511 119.982
L375.798 119.568
L377.086 119.583
L378.374 119.803
L379.662 120.586
L380.949 120.407
L382.237 120.012
L383.525 121.036
L384.812 120.189
L386.1 119.011
L387.388 119.457
L388.675 119.376
L389.963 118.788
L391.251 119.386
L392.538 119.378
L393.826 118.873
L395.114 121.533
L396.402 120.577
L397.689 121.146
L398.977 120.812
L400.265 121.214
L401.552 121.098
L402.84 121.301
L404.128 120.712
L405.415 119.711
L406.703 120.908
L407.991 121.479
L410.566 120.237
L411.854 121.542
L413.142 121.283
L414.429 121.338
L415.717 121.176
L417.005 122.308
L418.292 122.819
L419.58 122.215
L420.868 123.084
L422.155 121.854
L423.443 122.383
L424.731 122.629
L426.018 122.633
L427.306 121.939
L428.594 122.774
L429.882 122.827
L431.169 121.962
L432.457 120.913
L433.745 121.25
L435.032 122.094
L436.32 121.276
L437.608 120.085
L438.895 121.704
L440.183 121.328
L441.471 122.583
L442.758 122.54
L445.334 123.042
L446.622 122.517
L447.909 121.759
L449.197 121.952
L450.485 120.948
L451.772 122.287
L453.06 121.026
L454.348 120.868
L455.635 121.419
L456.923 120.209
L458.211 121.734
L459.498 120.377
L460.786 120.963
L462.074 121.371
L463.362 119.706
L464.649 121.006
L465.937 118.151
L467.225 120.989
L468.512 121.096
L471.088 120.499
L472.375 120.907
L473.663 119.806
L474.951 119.816
L476.238 120.228
L477.526 120.33
L478.814 120.914
L480.102 122.786
L481.389 124.26
L482.677 125.508
L483.965 127.594
L485.252 132.229
L487.828 146.583
L489.115 157.394
L490.403 169.409
L491.691 183.004
L494.266 217.239
L499.417 297.408
L500.705 313.673
L501.992 328.098
L503.28 340.83
L504.568 351.273
L505.855 359.731
L507.143 366.995
L509.718 377.936
L511.006 383.191
L513.582 389.865
L514.869 391.906
L516.157 394.806
L517.445 396.216
L518.732 398.2
L520.02 399.742
L521.308 400.49
L522.595 402.134
L523.883 402.972
L525.171 403.404
L526.458 403.693
L527.746 404.263
L529.034 404.54
L530.322 404.436
L531.609 405.014
L532.897 405.159
L534.185 404.582
L535.472 403.091
L536.76 401.228
L538.048 400.112
L539.335 398.205
L540.623 395.776
L541.911 393.714
L543.198 390.623
L544.486 387.954
L545.774 384.344
L548.349 375.737
L550.925 363.964
L552.212 356.217
L554.788 336.749
L556.075 324.066
L558.651 294.893
L561.226 258.867
L563.802 219.899
L565.089 199.901
L567.665 166.297
L568.952 154.028
L570.24 143.546
L571.528 137.286
L572.815 132.647
L575.391 126.019
L576.678 124.929
L577.966 122.694
L579.254 123.297
L580.542 122.656
L581.829 122.309
L583.117 122.715
L584.405 122.955
L586.98 122.063
L588.268 123.354
L589.555 122.9
L590.843 122.637
L592.131 121.646
L593.418 121.362
L594.706 121.39
L595.994 121.917
L597.282 122.12
L598.569 121.092
L599.857 120.208
L601.145 121.031
L602.432 120.119
L603.72 120.704
L605.008 121.012
L606.295 120.139
L608.871 120.537
L610.158 121.284
L611.446 121.774
L612.734 120.713
L614.022 121.458
L615.309 121.796
L616.597 121.776
L617.885 122.232
L619.172 123.096
L620.46 121.263
L621.748 122.218
L623.035 122.708
L624.323 121.954
L625.611 121.685
L626.898 121.57
L628.186 120.574
L629.474 120.655
L630.762 122.403
L632.049 121.115
L633.337 122.562
L634.625 122.958
L635.912 122.422
L637.2 121.544
L638.488 121.897
L639.775 120.803
L641.063 121.203
L642.351 120.769
L643.638 121.282
L644.926 119.803
L646.214 120.778
L647.502 120.279
L648.789 121.094
L650.077 121.404
L651.365 119.432
L652.652 120.351
L653.94 119.64
L655.228 121.165
L657.803 120.808
L659.091 120.8
L660.378 119.186
L661.666 120.328
L662.954 119.554
L665.529 119.235
L666.817 120.427
L668.105 120.365
L669.392 118.953
L670.68 120.815
L671.968 119.607
L675.831 119.804
L677.118 119.007
L678.406 119.622
L679.694 119.355
L680.982 119.271
L683.557 121.387
L684.845 119.219
L686.132 119.026
L687.42 119.587
L688.708 119.171
L689.995 120.065
L691.283 118.998
L692.571 119.384
L695.146 119.58
L696.434 118.815
L697.722 118.802
L699.009 119.188
L700.297 119.122
L702.872 119.835
L704.16 119.667
L705.448 119.718
L706.735 118.862
L708.023 119.368
L709.311 120.193
L710.598 120.192
L711.886 119.539
L713.174 119.565
L714.462 119.709
L715.749 119.466
L717.037 118.21
L718.325 119.258
L722.188 118.661
L723.475 118.724
L724.763 117.893
L726.051 117.816
L727.338 117.26
L728.626 118.165
L729.914 117.833
L731.202 117.757
L732.489 117.006
L733.777 117.437
L735.065 116.904
L736.352 115.764
L737.64 116.651
L738.928 116.67
L740.215 116.056
L742.791 113.549
L744.078 114.554
L745.366 113.739
L746.654 113.644
L747.942 114.459
L749.229 113.064
L750.517 113.859
L754.38 112.981
L755.668 113.583
L756.955 112.913
L758.243 113.139
L759.531 112.674
L760.818 113.325
L762.106 112.532
L763.394 113.684
L764.682 112.91
L765.969 113.502
L767.257 112.963
L768.545 112.691
L769.832 113.253
L771.12 112.261
L772.408 111.929
L773.695 112.147
L774.983 112.486
L776.271 111.845
L777.558 113.444
L778.846 112.257
L780.134 111.35
L781.422 110.998
L782.709 112.132
L783.997 110.186
L785.285 111.548
L786.572 110.834
L787.86 112.043
L789.148 112.147
L790.435 110.98
L791.723 110.595
L793.011 111.204
L794.298 110.868
L795.586 109.738
L796.874 110.219
L798.162 109.467
L799.449 109.146
L802.025 109.984
L803.312 110.18
L804.6 109.822
L805.888 108.683
L807.175 108.777
L808.463 108.726
L809.751 109.361
L811.038 109.747
L812.326 108.956
L813.614 109.126
L814.902 109.006
L816.189 110.185
L817.477 108.884
L818.765 108.649
L820.052 109.786
L821.34 108.255
L822.628 109.596
L823.915 109.245
L825.203 108.539
L826.491 109.566
L827.778 109.504
L829.066 109.323
L830.354 109.656
L831.642 109.29
L832.929 109.303
L834.217 109.434
L835.505 109.862
L836.792 109.345
L838.08 109.25
L839.368 108.764
L840.655 109.069
L841.943 108.896
L843.231 108.337
L844.518 109.405
L845.806 107.678
L847.094 109.18
L848.382 108.296
L849.669 108.274
L850.957 109.272
L852.245 108.622
L853.532 109.142
L854.82 110.183
L856.108 109.695
L857.395 109.037
L858.683 108.812
L859.971 109.412
L861.258 108.561
L862.546 109.504
L863.834 109.314
L865.122 108.976
L866.409 108.053
L867.697 108.802
L868.985 108.627
L870.272 108.762
L871.56 109.075
L872.848 108.029
L874.135 108.32
L875.423 110.363
L876.711 107.661
L877.998 108.768
L879.286 109.188
L880.574 108.807
L881.862 109.709
L883.149 109.772
L884.437 109.405
L885.725 108.86
L887.012 108.456
L888.3 107.796
L889.588 108.686
L890.875 109.17
L892.163 109.482
L893.451 110.043
L896.026 108.753
L898.602 108.952
L899.889 109.295
L902.465 107.788
L903.752 109.685
L905.04 109.486
L906.328 110.304
L907.615 109.156
L908.903 110.23
L910.191 109.786
L911.478 109.08
L912.766 109.716
L915.342 108.419
L916.629 109.848
L917.917 109.303
L919.205 109.06
L920.492 109.357
L921.78 109.281
L923.068 109.967
L924.355 110.195
L925.643 108.509
L926.931 110.096
L929.506 109.372
L930.794 109.262
L932.082 108.73
L933.369 109.272
L934.657 109.184
L935.945 107.898
L937.232 109.749
L938.52 109.413
L939.808 108.343
L941.095 107.875
L942.383 108.943
L943.671 109.813
L944.958 108.508
L946.246 110.309
L947.534 109.086
L948.822 109.313
L950.109 110.332
L951.397 109.802
L952.685 108.902
L956.548 110.089
L957.835 109.25
L959.123 109.338
L962.986 108.796
L964.274 109.146
L965.562 109.759
L966.849 109.986
L968.137 109.859
L969.425 110.435
L970.712 109.063
L970.712 109.063" style="fill:none;stroke:#000000;stroke-dasharray:6.000000,6.000000;stroke-dashoffset:0.0;stroke-width:2;"/>
   </g>
   <g id="line2d_2">
    <path clip-path="url(#p048f99bc99)" d="
M135 66.906
L136.288 76.2341
L137.575 97.7073
L138.863 59.1744
L140.151 63.2495
L141.438 105.546
L142.726 126.652
L144.014 99.4213
L145.302 106.48
L146.589 116.597
L147.877 70.5232
L149.165 74.0069
L150.452 107.516
L151.74 56.5285
L153.028 126.459
L155.603 67.1061
L156.891 96.1909
L158.178 99.4002
L162.042 115.727
L163.329 89.6839
L164.617 83.9064
L165.905 87.1201
L167.192 92.8716
L168.48 99.6506
L169.768 103.204
L171.055 105.275
L172.343 108.563
L173.631 121.227
L176.206 60.7953
L177.494 80.8705
L178.782 128.758
L180.069 90.3913
L181.357 74.3581
L182.645 119.851
L183.932 112.661
L185.22 88.3551
L186.508 103.218
L187.795 101.443
L189.083 118.24
L190.371 94.589
L191.658 131.902
L192.946 139.553
L194.234 116.399
L195.522 121.962
L196.809 125.163
L198.097 97.9743
L199.385 114.079
L200.672 121.862
L201.96 95.1083
L203.248 86.5765
L204.535 99.1305
L205.823 90.7996
L207.111 99.3048
L209.686 120.084
L210.974 83.0167
L212.262 94.3537
L213.549 77.7175
L214.837 102.839
L216.125 89.4036
L217.412 95.7454
L218.7 91.9768
L219.988 99.5503
L221.275 103.538
L222.563 122.495
L223.851 79.9339
L225.138 75.7976
L226.426 102.226
L227.714 99.2616
L229.002 112.644
L230.289 99.1193
L231.577 104.5
L232.865 125.468
L234.152 120.212
L235.44 102.518
L236.728 98.6024
L238.015 108.798
L239.303 93.7097
L240.591 116.707
L241.878 88.1538
L243.166 101.165
L244.454 135.355
L245.742 122.06
L247.029 84.7049
L248.317 112.153
L249.605 108.321
L250.892 129.341
L252.18 78.1657
L253.468 88.2911
L254.755 108.715
L256.043 117.294
L257.331 96.0607
L258.618 76.7704
L259.906 106.748
L261.194 91.0544
L263.769 125.19
L265.057 118.952
L266.345 137.276
L267.632 112.264
L268.92 90.123
L270.208 91.431
L271.495 112.713
L272.783 107.29
L274.071 91.0218
L275.358 87.1458
L276.646 118.287
L277.934 98.2685
L279.222 101.645
L280.509 92.9206
L281.797 100.437
L283.085 95.3108
L284.372 78.1455
L285.66 120.805
L286.948 93.3324
L288.235 76.7156
L290.811 113.656
L292.098 93.9595
L293.386 105.693
L294.674 106.749
L297.249 73.1277
L298.537 103.629
L299.825 119.226
L301.112 84.1405
L302.4 95.4883
L303.688 108.545
L304.975 94.4208
L306.263 128.107
L307.551 114.679
L308.838 90.9786
L310.126 91.3303
L311.414 103.581
L312.702 124.172
L313.989 108.221
L315.277 99.1961
L316.565 109.584
L317.852 118.347
L319.14 100.997
L320.428 101.002
L321.715 121.247
L323.003 129.727
L324.291 114.676
L325.578 105.505
L326.866 99.2025
L328.154 95.5116
L329.442 104.868
L330.729 93.815
L332.017 140.243
L333.305 95.2573
L334.592 76.2536
L335.88 107.577
L337.168 100.809
L338.455 85.4034
L339.743 115.52
L341.031 87.8808
L342.318 85.6378
L343.606 69.3443
L344.894 106.129
L347.469 80.1178
L348.757 110.867
L350.045 106.76
L351.332 104.801
L352.62 108.347
L353.908 103.571
L355.195 125.484
L356.483 161.003
L357.771 131.137
L359.058 171.846
L360.346 177.335
L361.634 159.613
L362.922 196.255
L364.209 200.258
L365.497 234.124
L366.785 258.049
L368.072 261.846
L369.36 290.413
L370.648 309.644
L371.935 294.06
L373.223 308.593
L375.798 254.49
L378.374 175.367
L379.662 198.407
L380.949 175.6
L382.237 191.438
L383.525 176.896
L384.812 202.918
L386.1 198.949
L387.388 192.528
L388.675 190.836
L389.963 175.653
L391.251 192.741
L393.826 202.5
L395.114 183.877
L396.402 224.676
L397.689 185.12
L398.977 188.58
L400.265 204.406
L401.552 209.313
L402.84 203.461
L404.128 205.299
L405.415 195.299
L406.703 203.669
L407.991 220.267
L409.278 206.633
L410.566 201.52
L411.854 210.053
L413.142 207.846
L414.429 194.935
L415.717 201.888
L417.005 196.179
L418.292 226.368
L419.58 260.796
L420.868 252.034
L422.155 244.321
L424.731 235.41
L426.018 233.514
L427.306 225.677
L428.594 240.276
L429.882 216.798
L431.169 208.713
L432.457 182.379
L433.745 172.65
L435.032 154.98
L436.32 157.622
L437.608 150.337
L438.895 171.339
L440.183 180.253
L441.471 198.55
L442.758 224.366
L444.046 225.397
L446.622 206.146
L447.909 205.879
L449.197 200.682
L450.485 211.567
L451.772 226.35
L453.06 230.558
L454.348 223.819
L455.635 216.051
L456.923 227.134
L458.211 211.579
L459.498 216.139
L460.786 211.545
L462.074 199.147
L463.362 155.805
L464.649 182.354
L465.937 185.628
L468.512 165
L469.8 125.211
L471.088 151.391
L472.375 139.091
L473.663 145.799
L474.951 123.213
L477.526 227.933
L478.814 132.319
L480.102 167.71
L481.389 199.512
L482.677 177.247
L483.965 192.461
L485.252 229.176
L486.54 249.616
L487.828 273.832
L489.115 285.702
L490.403 330.525
L491.691 364.269
L492.978 378.748
L494.266 408.164
L495.554 420.906
L496.842 424.544
L498.129 432.716
L499.417 439.631
L500.705 451.841
L501.992 448.44
L503.28 447.389
L504.568 456.158
L505.855 460.218
L507.143 468.7
L508.431 481.123
L509.718 483.407
L511.006 490.192
L512.294 498.46
L513.582 508.915
L514.869 504
L516.157 523.557
L517.445 534.737
L518.732 533.257
L520.02 538.651
L521.308 542.203
L522.595 540.303
L523.883 544.993
L525.171 550.874
L526.458 547.638
L527.746 546.754
L529.034 543.601
L530.322 547.278
L531.609 543.453
L532.897 549.624
L534.185 543.693
L535.472 544.698
L536.76 541.171
L538.048 539.981
L539.335 539.828
L540.623 537.577
L541.911 537.372
L544.486 520.873
L545.774 514.559
L547.062 509.905
L548.349 500.33
L549.637 499.837
L550.925 496.167
L552.212 491.241
L553.5 487.481
L554.788 467.586
L556.075 466.318
L557.363 444.912
L558.651 435.582
L559.938 444.672
L561.226 459.433
L562.514 531.417
L563.802 503.099
L565.089 421.599
L566.377 396.123
L567.665 335.942
L568.952 296.354
L570.24 251.178
L571.528 235.856
L572.815 229.576
L574.103 184.468
L575.391 196.274
L576.678 176.967
L577.966 187.22
L579.254 192.291
L580.542 217.266
L581.829 171.648
L584.405 195.145
L585.692 182.195
L586.98 171.861
L588.268 193.768
L589.555 213.214
L590.843 190
L592.131 183.271
L593.418 189.537
L594.706 184.158
L595.994 206.843
L597.282 191.3
L598.569 195.099
L599.857 190.959
L601.145 219.682
L602.432 209.457
L603.72 227.719
L605.008 261.325
L606.295 244.519
L607.583 281.381
L608.871 255.069
L610.158 244.728
L611.446 231.812
L612.734 253.087
L614.022 236.822
L615.309 236.406
L617.885 202.42
L619.172 205.211
L620.46 204.238
L621.748 223.615
L623.035 191.554
L624.323 213.916
L625.611 135.306
L626.898 202.583
L628.186 212.836
L629.474 269.258
L630.762 292.075
L632.049 276.756
L633.337 249.92
L634.625 257.32
L635.912 257.681
L637.2 254.044
L638.488 244.616
L639.775 250.189
L641.063 249.412
L642.351 244.426
L643.638 250.021
L644.926 256.496
L646.214 256.278
L647.502 247.288
L648.789 244.217
L650.077 244.616
L651.365 247.768
L652.652 249.151
L653.94 249.892
L655.228 239.244
L656.515 237.43
L657.803 216.195
L659.091 229.467
L660.378 182.645
L661.666 178.982
L662.954 230.816
L664.242 250.804
L665.529 252.576
L666.817 241.011
L668.105 242.049
L669.392 200.615
L670.68 219.414
L671.968 215.956
L673.255 175.882
L674.543 208.681
L675.831 185.939
L677.118 193.7
L678.406 186.975
L680.982 171.362
L683.557 198.127
L684.845 173.797
L686.132 161.106
L687.42 163.846
L688.708 156.763
L689.995 183.122
L691.283 196.931
L692.571 179.469
L693.858 178.583
L695.146 169.018
L696.434 174.46
L697.722 180.995
L699.009 204.387
L700.297 179.526
L701.585 192.945
L702.872 185.188
L704.16 202.418
L705.448 209.736
L706.735 223.104
L708.023 230.383
L709.311 208.118
L710.598 223.69
L711.886 215.467
L713.174 231.695
L714.462 234.252
L715.749 223.615
L717.037 217.099
L718.325 211.583
L719.612 220.358
L720.9 230.078
L722.188 211.623
L723.475 201.892
L726.051 238.3
L727.338 220.881
L728.626 227.319
L729.914 177.808
L731.202 172.59
L732.489 199.639
L733.777 162.319
L735.065 132.714
L736.352 123.458
L737.64 140.013
L738.928 183.629
L740.215 161.924
L741.503 144.211
L742.791 143.1
L744.078 158.792
L745.366 133.375
L746.654 143.198
L747.942 164.558
L749.229 140.114
L750.517 143.017
L751.805 159.461
L753.092 136.192
L754.38 177.68
L755.668 165.44
L756.955 171.677
L758.243 121.097
L759.531 140.363
L760.818 133.029
L762.106 114.336
L763.394 132.086
L764.682 110.784
L765.969 153.932
L767.257 133.414
L768.545 145.004
L769.832 163.654
L771.12 153.553
L772.408 139.556
L773.695 142.87
L774.983 130.427
L776.271 129.937
L777.558 97.8992
L778.846 171.179
L780.134 133.297
L781.422 158.061
L782.709 102.735
L783.997 121.6
L785.285 92.5362
L786.572 95.704
L787.86 119.808
L789.148 123.654
L790.435 148.4
L791.723 138.55
L793.011 117.001
L794.298 129.037
L795.586 147.227
L796.874 109.849
L798.162 95.6587
L799.449 110.368
L800.737 119.005
L802.025 144.719
L803.312 118.997
L804.6 84.7498
L805.888 116.697
L807.175 138.724
L808.463 105.198
L809.751 114.285
L811.038 66.8405
L812.326 134.806
L813.614 101.12
L814.902 58.7539
L816.189 98.1326
L817.477 85.4682
L818.765 86.31
L820.052 114.765
L821.34 93.3113
L822.628 100.439
L823.915 102.629
L825.203 60.4502
L826.491 89.0833
L827.778 93.1143
L829.066 94.9963
L830.354 113.834
L831.642 101.775
L832.929 84.134
L834.217 98.6727
L835.505 106.922
L836.792 112.998
L838.08 103.839
L839.368 95.7361
L840.655 89.6268
L841.943 82.6332
L843.231 89.0327
L844.518 104.556
L845.806 95.9889
L847.094 123.701
L848.382 98.9287
L849.669 100.853
L850.957 111.077
L852.245 112.547
L853.532 94.4544
L854.82 45.3559
L856.108 99.2474
L857.395 114.407
L858.683 92.1441
L859.971 123.101
L861.258 85.4638
L863.834 94.3695
L865.122 100.745
L866.409 133.343
L867.697 80.8928
L870.272 122.18
L871.56 108.232
L872.848 92.308
L874.135 100.262
L875.423 89.0554
L876.711 91.8401
L877.998 105.47
L879.286 130.766
L880.574 77.6469
L881.862 113.088
L883.149 87.1042
L884.437 114.918
L885.725 96.7522
L887.012 102.755
L888.3 109.723
L889.588 110.653
L890.875 103.045
L892.163 91.0471
L893.451 115.058
L894.738 105.274
L896.026 92.2821
L897.314 105.11
L898.602 100.273
L899.889 94.8439
L901.177 99.0649
L902.465 93.2084
L903.752 111.391
L905.04 103.363
L906.328 98.4523
L907.615 119.808
L908.903 119.766
L910.191 70.9727
L911.478 87.1368
L912.766 170.663
L914.054 105.226
L915.342 94.2173
L916.629 112.871
L917.917 50.9016
L919.205 69.5071
L920.492 92.028
L921.78 63.0426
L923.068 95.97
L924.355 100.572
L925.643 84.0965
L926.931 107.822
L928.218 108.533
L929.506 97.8028
L930.794 108.373
L932.082 120.13
L933.369 94.7796
L934.657 90.286
L935.945 92.5227
L937.232 99.3146
L938.52 98.7423
L939.808 37.9953
L941.095 123.215
L942.383 83.2672
L943.671 91.6379
L944.958 96.6938
L946.246 102.695
L947.534 96.0351
L948.822 95.6532
L950.109 122.009
L951.397 68.1755
L952.685 98.9863
L953.972 144.032
L955.26 151.645
L956.548 106.265
L957.835 46.183
L959.123 112.943
L960.411 100.265
L961.698 45.1577
L962.986 125.571
L964.274 110.362
L965.562 99.719
L966.849 105.288
L968.137 122.569
L969.425 86.6848
L970.712 80.5048
L970.712 80.5048" style="fill:none;stroke:#00008b;stroke-linecap:square;stroke-width:2;"/>
   </g>
   <g id="matplotlib.axis_1">
    <g id="xtick_1">
     <g id="line2d_3">
      <defs>
       <path d="
M0 0
L0 -4" id="mf06237e818" style="stroke:#000000;"/>
      </defs>
      <g>
       <use style="stroke:#000000;" x="135.0" xlink:href="#mf06237e818" y="600.696"/>
      </g>
     </g>
     <g id="text_1">
      <!-- $0$ -->
      <defs>
       <path d="
M42 31.6406
C42 37.75 41.9062 48.125 37.7031 56.1094
C34 63.1094 28.0938 65.5938 22.9062 65.5938
C18.0938 65.5938 12 63.4062 8.20312 56.2031
C4.20312 48.7188 3.79688 39.4375 3.79688 31.6406
C3.79688 25.9531 3.90625 17.2812 7 9.67188
C11.2969 -0.609375 19 -2 22.9062 -2
C27.5 -2 34.5 -0.109375 38.5938 9.375
C41.5938 16.2812 42 24.3594 42 31.6406
M22.9062 -0.40625
C16.5 -0.40625 12.7031 5.07812 11.2969 12.6875
C10.2031 18.5625 10.2031 27.1562 10.2031 32.75
C10.2031 40.4375 10.2031 46.8281 11.5 52.9219
C13.4062 61.3906 19 64 22.9062 64
C27 64 32.2969 61.2969 34.2031 53.125
C35.5 47.4375 35.5938 40.7344 35.5938 32.75
C35.5938 26.25 35.5938 18.2656 34.4062 12.375
C32.2969 1.48438 26.4062 -0.40625 22.9062 -0.40625" id="CMR17-48"/>
      </defs>
      <g transform="translate(125.130858463 650.583920299)scale(0.43199999999999994 -0.43199999999999994)">
       <use transform="scale(0.9962640099626402)" xlink:href="#CMR17-48"/>
      </g>
     </g>
    </g>
    <g id="xtick_2">
     <g id="line2d_4">
      <g>
       <use style="stroke:#000000;" x="263.769230769" xlink:href="#mf06237e818" y="600.696"/>
      </g>
     </g>
     <g id="text_2">
      <!-- $100$ -->
      <defs>
       <path d="
M26.5938 63.3125
C26.5938 65.4062 26.5 65.5 25.0938 65.5
C21.2031 61.1875 15.2969 59.7969 9.70312 59.7969
C9.40625 59.7969 8.90625 59.7969 8.79688 59.5
C8.70312 59.2969 8.70312 59.0938 8.70312 57
C11.7969 57 17 57.5938 21 59.9844
L21 7.20312
C21 3.6875 20.7969 2.5 12.2031 2.5
L9.20312 2.5
L9.20312 0
C14 0 19 0 23.7969 0
C28.5938 0 33.5938 0 38.4062 0
L38.4062 2.5
L35.4062 2.5
C26.7969 2.5 26.5938 3.59375 26.5938 7.15625
z
" id="CMR17-49"/>
      </defs>
      <g transform="translate(234.161806158 650.583920299)scale(0.43199999999999994 -0.43199999999999994)">
       <use transform="scale(0.9962640099626402)" xlink:href="#CMR17-49"/>
       <use transform="translate(45.69047711706103 0.0)scale(0.9962640099626402)" xlink:href="#CMR17-48"/>
       <use transform="translate(91.38095423412206 0.0)scale(0.9962640099626402)" xlink:href="#CMR17-48"/>
      </g>
     </g>
    </g>
    <g id="xtick_3">
     <g id="line2d_5">
      <g>
       <use style="stroke:#000000;" x="392.538461538" xlink:href="#mf06237e818" y="600.696"/>
      </g>
     </g>
     <g id="text_3">
      <!-- $200$ -->
      <defs>
       <path d="
M41.7031 15.4531
L39.9062 15.4531
C38.9062 8.375 38.0938 7.17188 37.7031 6.5625
C37.2031 5.76562 30 5.76562 28.5938 5.76562
L9.40625 5.76562
C13 9.67188 20 16.75 28.5 24.9531
C34.5938 30.7344 41.7031 37.5312 41.7031 47.4219
C41.7031 59.2188 32.2969 66 21.7969 66
C10.7969 66 4.09375 56.3125 4.09375 47.3438
C4.09375 43.4375 7 42.9375 8.20312 42.9375
C9.20312 42.9375 12.2031 43.5469 12.2031 47.0312
C12.2031 50.1094 9.59375 51 8.20312 51
C7.59375 51 7 50.9062 6.59375 50.7031
C8.5 59.2188 14.2969 63.4062 20.4062 63.4062
C29.0938 63.4062 34.7969 56.5156 34.7969 47.4219
C34.7969 38.7344 29.7031 31.25 24 24.75
L4.09375 2.28125
L4.09375 0
L39.2969 0
z
" id="CMR17-50"/>
      </defs>
      <g transform="translate(362.931036927 650.583920299)scale(0.43199999999999994 -0.43199999999999994)">
       <use transform="scale(0.9962640099626402)" xlink:href="#CMR17-50"/>
       <use transform="translate(45.69047711706103 0.0)scale(0.9962640099626402)" xlink:href="#CMR17-48"/>
       <use transform="translate(91.38095423412206 0.0)scale(0.9962640099626402)" xlink:href="#CMR17-48"/>
      </g>
     </g>
    </g>
    <g id="xtick_4">
     <g id="line2d_6">
      <g>
       <use style="stroke:#000000;" x="521.307692308" xlink:href="#mf06237e818" y="600.696"/>
      </g>
     </g>
     <g id="text_4">
      <!-- $300$ -->
      <defs>
       <path d="
M22.0938 33.7031
C31 33.7031 34.9062 25.9688 34.9062 17.0312
C34.9062 5 28.5 0.390625 22.7031 0.390625
C17.4062 0.390625 8.79688 3.03125 6.09375 10.8281
C6.59375 10.625 7.09375 10.625 7.59375 10.625
C10 10.625 11.7969 12.2188 11.7969 14.8125
C11.7969 17.7031 9.59375 19 7.59375 19
C5.90625 19 3.29688 18.2031 3.29688 14.4688
C3.29688 5.23438 12.2969 -2 22.9062 -2
C34 -2 42.5 6.71875 42.5 16.9531
C42.5 26.6719 34.5 33.6875 25 34.7969
C32.5938 36.375 39.9062 43.0625 39.9062 52.0156
C39.9062 59.6875 32 65.2969 23 65.2969
C13.9062 65.2969 5.90625 59.8281 5.90625 52.0156
C5.90625 48.5938 8.5 48 9.79688 48
C11.9062 48 13.7031 49.2969 13.7031 51.8906
C13.7031 54.4688 11.9062 55.7656 9.79688 55.7656
C9.40625 55.7656 8.90625 55.7656 8.5 55.5625
C11.4062 61.8594 19.2969 63 22.7969 63
C26.2969 63 32.9062 61.3281 32.9062 51.875
C32.9062 49.1094 32.5 44.1875 29.0938 39.8438
C26.0938 36 22.7031 36 19.4062 35.5938
C18.9062 35.5938 16.5938 35.5938 16.2031 35.5938
C15.5 35.4844 15.0938 35.3906 15.0938 34.5938
C15.0938 33.8125 15.2031 33.7031 17.2031 33.7031
z
" id="CMR17-51"/>
      </defs>
      <g transform="translate(491.700267696 650.583920299)scale(0.43199999999999994 -0.43199999999999994)">
       <use transform="scale(0.9962640099626402)" xlink:href="#CMR17-51"/>
       <use transform="translate(45.69047711706103 0.0)scale(0.9962640099626402)" xlink:href="#CMR17-48"/>
       <use transform="translate(91.38095423412206 0.0)scale(0.9962640099626402)" xlink:href="#CMR17-48"/>
      </g>
     </g>
    </g>
    <g id="xtick_5">
     <g id="line2d_7">
      <g>
       <use style="stroke:#000000;" x="650.076923077" xlink:href="#mf06237e818" y="600.696"/>
      </g>
     </g>
     <g id="text_5">
      <!-- $400$ -->
      <defs>
       <path d="
M33.5938 64.3281
C33.5938 66.4062 33.5 66.5 31.7031 66.5
L2 19.5938
L2 17
L27.7969 17
L27.7969 7.14062
C27.7969 3.5 27.5938 2.5 20.5938 2.5
L18.7031 2.5
L18.7031 0
C21.9062 0 27.2969 0 30.7031 0
C34.0938 0 39.5 0 42.7031 0
L42.7031 2.5
L40.7969 2.5
C33.7969 2.5 33.5938 3.5 33.5938 7.14062
L33.5938 17
L43.7969 17
L43.7969 19.5938
L33.5938 19.5938
z

M28.0938 57.7656
L28.0938 19.5938
L4 19.5938
z
" id="CMR17-52"/>
      </defs>
      <g transform="translate(620.469498466 650.583920299)scale(0.43199999999999994 -0.43199999999999994)">
       <use transform="scale(0.9962640099626402)" xlink:href="#CMR17-52"/>
       <use transform="translate(45.69047711706103 0.0)scale(0.9962640099626402)" xlink:href="#CMR17-48"/>
       <use transform="translate(91.38095423412206 0.0)scale(0.9962640099626402)" xlink:href="#CMR17-48"/>
      </g>
     </g>
    </g>
    <g id="xtick_6">
     <g id="line2d_8">
      <g>
       <use style="stroke:#000000;" x="778.846153846" xlink:href="#mf06237e818" y="600.696"/>
      </g>
     </g>
     <g id="text_6">
      <!-- $500$ -->
      <defs>
       <path d="
M11.4062 57.6875
C12.4062 57.2812 16.5 56 20.7031 56
C30 56 35.0938 61.0156 38 63.9219
C38 64.7344 38 65.25 37.4062 65.25
C37.2969 65.25 37.0938 65.25 36.2969 64.8281
C32.7969 63.3125 28.7031 62.0781 23.7031 62.0781
C20.7031 62.0781 16.2031 62.5 11.2969 64.7344
C10.2031 65.25 10 65.25 9.90625 65.25
C9.40625 65.25 9.29688 65.1406 9.29688 63.1562
L9.29688 34.2812
C9.29688 32.5 9.29688 32 10.2969 32
C10.7969 32 11 32.2031 11.5 32.9062
C14.7031 37.4844 19.0938 39.4062 24.0938 39.4062
C27.5938 39.4062 35.0938 37.2188 35.0938 20.1406
C35.0938 16.9531 35.0938 11.1719 32.0938 6.57812
C29.5938 2.48438 25.7031 0.390625 21.4062 0.390625
C14.7969 0.390625 8.09375 5 6.29688 12.7188
C6.70312 12.6094 7.5 12.4219 7.90625 12.4219
C9.20312 12.4219 11.7031 13.125 11.7031 16.2188
C11.7031 18.9062 9.79688 20 7.90625 20
C5.59375 20 4.09375 18.5938 4.09375 15.7969
C4.09375 7.09375 11 -2 21.5938 -2
C31.9062 -2 41.7031 6.875 41.7031 19.75
C41.7031 31.7188 33.9062 41 24.2031 41
C19.0938 41 14.7969 39.0938 11.4062 35.4531
z
" id="CMR17-53"/>
      </defs>
      <g transform="translate(749.238729235 650.583920299)scale(0.43199999999999994 -0.43199999999999994)">
       <use transform="scale(0.9962640099626402)" xlink:href="#CMR17-53"/>
       <use transform="translate(45.69047711706103 0.0)scale(0.9962640099626402)" xlink:href="#CMR17-48"/>
       <use transform="translate(91.38095423412206 0.0)scale(0.9962640099626402)" xlink:href="#CMR17-48"/>
      </g>
     </g>
    </g>
    <g id="xtick_7">
     <g id="line2d_9">
      <g>
       <use style="stroke:#000000;" x="907.615384615" xlink:href="#mf06237e818" y="600.696"/>
      </g>
     </g>
     <g id="text_7">
      <!-- $600$ -->
      <defs>
       <path d="
M10.5938 34
C10.5938 57.6562 21.7969 63 28.2969 63
C30.4062 63 35.5 62.6406 37.5 59
C35.9062 59 32.9062 59 32.9062 55.5156
C32.9062 52.8281 35.0938 51.9219 36.5 51.9219
C37.4062 51.9219 40.0938 52.3125 40.0938 55.625
C40.0938 61.7812 35.0938 65.2969 28.2031 65.2969
C16.2969 65.2969 3.79688 52.9688 3.79688 31
C3.79688 3.95312 15.0938 -2 23.0938 -2
C32.7969 -2 42 6.67188 42 20.0469
C42 32.5156 33.9062 41.5938 23.7031 41.5938
C17.5938 41.5938 13.0938 37.6094 10.5938 30.625
z

M23.0938 0.390625
C10.7969 0.390625 10.7969 18.75 10.7969 22.4375
C10.7969 29.625 14.2031 40 23.5 40
C25.2031 40 30.0938 40 33.4062 33.125
C35.2031 29.2188 35.2031 25.1406 35.2031 20.1406
C35.2031 14.75 35.2031 10.7812 33.0938 6.78125
C30.9062 2.67188 27.7031 0.390625 23.0938 0.390625" id="CMR17-54"/>
      </defs>
      <g transform="translate(878.007960004 650.583920299)scale(0.43199999999999994 -0.43199999999999994)">
       <use transform="scale(0.9962640099626402)" xlink:href="#CMR17-54"/>
       <use transform="translate(45.69047711706103 0.0)scale(0.9962640099626402)" xlink:href="#CMR17-48"/>
       <use transform="translate(91.38095423412206 0.0)scale(0.9962640099626402)" xlink:href="#CMR17-48"/>
      </g>
     </g>
    </g>
    <g id="text_8">
     <!-- pixel -->
     <defs>
      <path d="
M15.5 61.0781
C15.5 63.2656 13.7031 65.1562 11.4062 65.1562
C9.20312 65.1562 7.29688 63.375 7.29688 61.0781
C7.29688 58.8906 9.09375 57 11.4062 57
C13.5938 57 15.5 58.7969 15.5 61.0781
M3.79688 42.2812
L3.79688 39.7031
C9.40625 39.7031 10.2031 39.0938 10.2031 34.3281
L10.2031 6.67188
C10.2031 2.875 9.79688 2.39062 3.40625 2.39062
L3.40625 -0.203125
C5.79688 0 10.0938 0 12.5938 0
C15 0 19.0938 0 21.4062 -0.203125
L21.4062 2.39062
C15.5 2.39062 15.2969 2.98438 15.2969 6.5625
L15.2969 43.375
z
" id="CMR17-105"/>
      <path d="
M15.2969 68.6875
L3.40625 67.5938
L3.40625 65
C9.29688 65 10.2031 64.4062 10.2031 59.6406
L10.2031 6.65625
C10.2031 2.875 9.79688 2.39062 3.40625 2.39062
L3.40625 -0.203125
C5.79688 0 10.2031 0 12.7031 0
C15.2969 0 19.7031 0 22.0938 -0.203125
L22.0938 2.39062
C15.7031 2.39062 15.2969 2.78125 15.2969 6.65625
z
" id="CMR17-108"/>
      <path d="
M22 -16.6094
C15.5938 -16.6094 15.2031 -16.2031 15.2031 -12.3281
L15.2031 6.28125
C18.0938 2.09375 22.2969 -0.59375 27.5938 -0.59375
C37.5938 -0.59375 47.7031 8.17188 47.7031 21.6875
C47.7031 34.2344 39 43.7812 28.7031 43.7812
C22.7031 43.7812 17.7969 40.5 15 36.5312
L15 43.7812
L3.09375 42.6875
L3.09375 40.1094
C9 40.1094 9.90625 39.5 9.90625 34.7344
L9.90625 -12.3281
C9.90625 -16.1094 9.5 -16.6094 3.09375 -16.6094
L3.09375 -19.1875
C5.5 -19 9.90625 -19 12.5 -19
C15.0938 -19 19.5938 -19 22 -19.1875
z

M15.2031 31.4375
C15.2031 32.8438 15.2031 34.9219 19.0938 38.6094
C19.5938 39.0156 23 42 28 42
C35.2969 42 41.2969 32.9375 41.2969 21.5938
C41.2969 10.25 34.9062 1 27 1
C23.4062 1 19.5 2.6875 16.5 7.375
C15.2031 9.5625 15.2031 10.1562 15.2031 11.75
z
" id="CMR17-112"/>
      <path d="
M26 23.0938
C29 26.9844 32.4062 31.3594 35.2031 34.625
C38.5 38.4062 42.2969 40 46.7031 40
L46.7031 42.5938
C45 42.5938 41.5 42.5938 39.7031 42.5938
C37 42.5938 33.9062 42.5938 31.5938 42.6875
L31.5938 40.0938
C33 39.8906 33.7969 38.8906 33.7969 37.5
C33.7969 35.7031 32.7969 34.6094 32.2969 33.9219
L24.9062 24.5781
L16.0938 36.0312
C15.2031 37.125 15.2031 37.3125 15.2031 37.8125
C15.2031 39.0156 16.2031 40 17.9062 40
L17.9062 42.6875
C15.5 42.5938 11.2031 42.5938 8.70312 42.5938
C6 42.5938 2.79688 42.5938 0.59375 42.6875
L0.59375 40
C6 40 7.20312 39.5938 9.59375 36.6094
L21.0938 21.7969
C21.2969 21.5938 21.7969 21 21.7969 20.7031
C21.7969 20.2969 13.0938 9.67188 12 8.28125
C7.5 2.89062 2.79688 2.5 0.09375 2.5
L0.09375 0
C1.79688 0 5.29688 0 7.09375 0
C9.09375 0 13.5 0 15.2969 -0.09375
L15.2969 2.5
C14.7031 2.59375 13.0938 2.79688 13.0938 5.07812
C13.0938 6.875 13.9062 7.96875 14.7969 9.15625
L23.0938 19.3125
L31.7969 8
C32.5938 6.90625 33.7969 5.40625 33.7969 4.70312
C33.7969 3.29688 32.5938 2.5 31 2.5
L31 -0.09375
C33.4062 0 37.7031 0 40.2031 0
C42.9062 0 46.0938 0 48.2969 -0.09375
L48.2969 2.5
C43.2969 2.5 41.7969 2.6875 39.4062 5.78125
z
" id="CMR17-120"/>
      <path d="
M38.0938 23
C38.5 23.4062 38.5 23.6094 38.5 24.625
C38.5 34.9688 33.0938 44 21.7031 44
C11.0938 44 2.70312 33.8906 2.70312 21.6094
C2.70312 8.60938 12.2031 -1 22.7969 -1
C34 -1 38.4062 9.46875 38.4062 11.5469
C38.4062 12.25 37.7969 12.25 37.5938 12.25
C36.9062 12.25 36.7969 12.0469 36.4062 10.875
C34.2031 4.14062 28.7031 0.796875 23.5 0.796875
C19.2031 0.796875 14.9062 3.17188 12.2031 7.5
C9.09375 12.5469 9.09375 18.375 9.09375 23
z

M9.20312 24.5
C9.90625 39.1406 17.5938 42.4062 21.5938 42.4062
C28.4062 42.4062 33 35.8906 33.0938 24.5
z
" id="CMR17-101"/>
     </defs>
     <g transform="translate(512.586150933 693.843203723)scale(0.43199999999999994 -0.43199999999999994)">
      <use transform="scale(0.9962640099626402)" xlink:href="#CMR17-112"/>
      <use transform="translate(50.89536978031601 0.0)scale(0.9962640099626402)" xlink:href="#CMR17-105"/>
      <use transform="translate(75.7664282621809 0.0)scale(0.9962640099626402)" xlink:href="#CMR17-120"/>
      <use transform="translate(124.05934410997821 0.0)scale(0.9962640099626402)" xlink:href="#CMR17-101"/>
      <use transform="translate(164.54500457269614 0.0)scale(0.9962640099626402)" xlink:href="#CMR17-108"/>
     </g>
    </g>
   </g>
   <g id="matplotlib.axis_2">
    <g id="ytick_1">
     <g id="line2d_10">
      <defs>
       <path d="
M0 0
L4 0" id="m82fbe672db" style="stroke:#000000;"/>
      </defs>
      <g>
       <use style="stroke:#000000;" x="135.0" xlink:href="#m82fbe672db" y="600.696"/>
      </g>
     </g>
     <g id="text_9">
      <!-- $0.0$ -->
      <defs>
       <path d="
M18.4062 4.79688
C18.4062 7.6875 16 9.67188 13.5938 9.67188
C10.7031 9.67188 8.70312 7.28125 8.70312 4.89062
C8.70312 2 11.0938 0 13.5 0
C16.4062 0 18.4062 2.39062 18.4062 4.79688" id="CMMI12-58"/>
      </defs>
      <g transform="translate(63.8174685506 611.454278587)scale(0.43199999999999994 -0.43199999999999994)">
       <use transform="scale(0.9962640099626402)" xlink:href="#CMR17-48"/>
       <use transform="translate(45.69047711706103 0.0)scale(0.9962640099626402)" xlink:href="#CMMI12-58"/>
       <use transform="translate(72.78765420688046 0.0)scale(0.9962640099626402)" xlink:href="#CMR17-48"/>
      </g>
     </g>
    </g>
    <g id="ytick_2">
     <g id="line2d_11">
      <g>
       <use style="stroke:#000000;" x="135.0" xlink:href="#m82fbe672db" y="503.613818182"/>
      </g>
     </g>
     <g id="text_10">
      <!-- $0.2$ -->
      <g transform="translate(63.8174685506 514.372096768)scale(0.43199999999999994 -0.43199999999999994)">
       <use transform="scale(0.9962640099626402)" xlink:href="#CMR17-48"/>
       <use transform="translate(45.69047711706103 0.0)scale(0.9962640099626402)" xlink:href="#CMMI12-58"/>
       <use transform="translate(72.78765420688046 0.0)scale(0.9962640099626402)" xlink:href="#CMR17-50"/>
      </g>
     </g>
    </g>
    <g id="ytick_3">
     <g id="line2d_12">
      <g>
       <use style="stroke:#000000;" x="135.0" xlink:href="#m82fbe672db" y="406.531636364"/>
      </g>
     </g>
     <g id="text_11">
      <!-- $0.4$ -->
      <g transform="translate(63.8174685506 417.28991495)scale(0.43199999999999994 -0.43199999999999994)">
       <use transform="scale(0.9962640099626402)" xlink:href="#CMR17-48"/>
       <use transform="translate(45.69047711706103 0.0)scale(0.9962640099626402)" xlink:href="#CMMI12-58"/>
       <use transform="translate(72.78765420688046 0.0)scale(0.9962640099626402)" xlink:href="#CMR17-52"/>
      </g>
     </g>
    </g>
    <g id="ytick_4">
     <g id="line2d_13">
      <g>
       <use style="stroke:#000000;" x="135.0" xlink:href="#m82fbe672db" y="309.449454545"/>
      </g>
     </g>
     <g id="text_12">
      <!-- $0.6$ -->
      <g transform="translate(63.8174685506 320.207733132)scale(0.43199999999999994 -0.43199999999999994)">
       <use transform="scale(0.9962640099626402)" xlink:href="#CMR17-48"/>
       <use transform="translate(45.69047711706103 0.0)scale(0.9962640099626402)" xlink:href="#CMMI12-58"/>
       <use transform="translate(72.78765420688046 0.0)scale(0.9962640099626402)" xlink:href="#CMR17-54"/>
      </g>
     </g>
    </g>
    <g id="ytick_5">
     <g id="line2d_14">
      <g>
       <use style="stroke:#000000;" x="135.0" xlink:href="#m82fbe672db" y="212.367272727"/>
      </g>
     </g>
     <g id="text_13">
      <!-- $0.8$ -->
      <defs>
       <path d="
M27.2031 35.375
C33.5 38.5625 39.9062 43.3281 39.9062 50.9844
C39.9062 60.0312 31.0938 65.2969 23 65.2969
C13.9062 65.2969 5.90625 58.7344 5.90625 49.6875
C5.90625 47.2031 6.5 42.9219 10.4062 39.1406
C11.4062 38.1562 15.5938 35.1719 18.2969 33.2812
C13.7969 30.9844 3.29688 25.5312 3.29688 14.5938
C3.29688 4.35938 13.0938 -2 22.7969 -2
C33.5 -2 42.5 5.65625 42.5 15.7969
C42.5 24.8438 36.4062 29.0312 32.4062 31.7031
z

M14.0938 44.125
C13.2969 44.625 9.29688 47.7031 9.29688 52.375
C9.29688 58.4375 15.5938 63 22.7969 63
C30.7031 63 36.5 57.4531 36.5 50.9844
C36.5 41.7344 26.0938 36.4688 25.5938 36.4688
C25.5 36.4688 25.4062 36.4688 24.5938 37.0781
z

M32.5 23.7344
C34 22.6406 38.7969 19.375 38.7969 13.2969
C38.7969 5.95312 31.4062 0.390625 23 0.390625
C13.9062 0.390625 7 6.84375 7 14.6875
C7 22.5469 13.0938 29.0938 20 32.1875
z
" id="CMR17-56"/>
      </defs>
      <g transform="translate(63.8174685506 223.125551314)scale(0.43199999999999994 -0.43199999999999994)">
       <use transform="scale(0.9962640099626402)" xlink:href="#CMR17-48"/>
       <use transform="translate(45.69047711706103 0.0)scale(0.9962640099626402)" xlink:href="#CMMI12-58"/>
       <use transform="translate(72.78765420688046 0.0)scale(0.9962640099626402)" xlink:href="#CMR17-56"/>
      </g>
     </g>
    </g>
    <g id="ytick_6">
     <g id="line2d_15">
      <g>
       <use style="stroke:#000000;" x="135.0" xlink:href="#m82fbe672db" y="115.285090909"/>
      </g>
     </g>
     <g id="text_14">
      <!-- $1.0$ -->
      <g transform="translate(63.8174685506 126.043369496)scale(0.43199999999999994 -0.43199999999999994)">
       <use transform="scale(0.9962640099626402)" xlink:href="#CMR17-49"/>
       <use transform="translate(45.69047711706103 0.0)scale(0.9962640099626402)" xlink:href="#CMMI12-58"/>
       <use transform="translate(72.78765420688046 0.0)scale(0.9962640099626402)" xlink:href="#CMR17-48"/>
      </g>
     </g>
    </g>
    <g id="text_15">
     <!-- A, B -->
     <defs>
      <path d="
M15.7969 1.59375
C16 0.6875 16 0.375 16 -1.21875
C16 -7.25 14 -12.7656 9.79688 -17.7969
C9.29688 -18.2812 9.29688 -18.4844 9.29688 -18.7031
C9.29688 -19.0938 9.70312 -19.5 10.0938 -19.5
C10.7031 -19.5 17.5938 -12.4844 17.5938 -1.35938
C17.5938 1.9375 17.2031 8.15625 12.5 8.15625
C10.2969 8.15625 8.40625 6.67188 8.40625 4.07812
C8.40625 1.5 10.2969 0 12.5 0
C13.7031 0 15 0.5 15.7969 1.59375" id="CMR17-44"/>
      <path d="
M5.20312 68
L5.20312 65.4062
C12.0938 65.4062 13.2031 65.4062 13.2031 60.9375
L13.2031 7.0625
C13.2031 2.59375 12.0938 2.59375 5.20312 2.59375
L5.20312 0
L39.5938 0
C52.4062 0 60.7031 9.10938 60.7031 18.1875
C60.7031 27.2031 52.5 34.8906 41.7969 34.8906
C51.4062 36.8125 58.0938 43.2969 58.0938 51
C58.0938 59.4062 49.9062 68 37 68
z

M19.5 36
L19.5 61.5156
C19.5 64.9219 19.7031 65.4062 23.7031 65.4062
L36.5 65.4062
C46.4062 65.4062 50.7969 57.4062 50.7969 51.2031
C50.7969 43.6094 44.7031 36 33.9062 36
z

M23.7031 2.59375
C19.7031 2.59375 19.5 3.07812 19.5 6.45312
L19.5 34.4062
L38 34.4062
C48.2969 34.4062 53.2969 25.3906 53.2969 18.1562
C53.2969 10.9219 47.5938 2.59375 36.7031 2.59375
z
" id="CMR17-66"/>
      <path d="
M36.2969 68.4062
C35.7969 69.7031 35.5938 70 34.5938 70
C33.5938 70 33.4062 69.7031 32.9062 68.4062
L11.7031 8.84375
C9.79688 3.48438 5.79688 2.39062 2.29688 2.39062
L2.29688 -0.203125
C4.09375 0 8.09375 0 10 0
C12.5 0 16.5 0 18.9062 -0.203125
L18.9062 2.39062
C14.2031 2.39062 13.5 5.64062 13.5 6.85938
C13.5 7.76562 13.7031 8.28125 13.9062 8.89062
L19.2031 24
L45.4062 24
L51.4062 6.90625
C51.9062 5.70312 51.9062 5.5 51.9062 5.10938
C51.9062 2.39062 47.5938 2.39062 45.7031 2.39062
L45.7031 0
C48.5938 0 53.7969 0 56.9062 0
C59.5 0 64.5 0 66.9062 -0.203125
L66.9062 2.39062
C61.5938 2.39062 59.7969 2.39062 58.5 6.04688
z

M32.2969 60.5312
L44.5 26.5938
L20.0938 26.5938
z
" id="CMR17-65"/>
     </defs>
     <g transform="translate(50.446105425 374.588950603)rotate(-90.0)scale(0.43199999999999994 -0.43199999999999994)">
      <use transform="scale(0.9962640099626402)" xlink:href="#CMR17-65"/>
      <use transform="translate(69.0724298042497 0.0)scale(0.9962640099626402)" xlink:href="#CMR17-44"/>
      <use transform="translate(124.01945463301682 0.0)scale(0.9962640099626402)" xlink:href="#CMR17-66"/>
     </g>
    </g>
   </g>
   <g id="patch_3">
    <path d="
M135 600.696
L135 66.744" style="fill:none;stroke:#000000;stroke-width:2.0;"/>
   </g>
   <g id="patch_4">
    <path d="
M135 600.696
L972 600.696" style="fill:none;stroke:#000000;stroke-width:2.0;"/>
   </g>
   <g id="patch_5">
    <path d="
M972 600.696
L972 66.744" style="fill:none;stroke:#000000;stroke-width:2.0;"/>
   </g>
   <g id="patch_6">
    <path d="
M135 66.744
L972 66.744" style="fill:none;stroke:#000000;stroke-width:2.0;"/>
   </g>
   <g id="legend_1">
    <g id="patch_7">
     <path d="
M642.89 582.696
L946.8 582.696
Q954 582.696 954 575.496
L954 478.744
Q954 471.544 946.8 471.544
L642.89 471.544
Q635.69 471.544 635.69 478.744
L635.69 575.496
Q635.69 582.696 642.89 582.696
z
" style="fill:#ffffff;"/>
    </g>
    <g id="line2d_16">
     <path d="
M660.89 498.544
L711.29 498.544" style="fill:none;stroke:#000000;stroke-dasharray:6.000000,6.000000;stroke-dashoffset:0.0;stroke-width:2;"/>
    </g>
    <g id="line2d_17"/>
    <g id="text_16">
     <!-- absorption $A$ -->
     <defs>
      <path d="
M15.0938 40
L29.0938 40
L29.0938 42.5781
L15.0938 42.5781
L15.0938 61
L13.2969 61
C13.0938 50.7031 9.59375 41.6875 1.09375 41.6875
L1.09375 40
L9.79688 40
L9.79688 12.0469
C9.79688 10.1562 9.79688 -1 21.4062 -1
C27.2969 -1 30.7031 4.78125 30.7031 12.1406
L30.7031 17.8125
L28.9062 17.8125
L28.9062 12.2344
C28.9062 5.375 26.2031 0.796875 22 0.796875
C19.0938 0.796875 15.0938 2.78125 15.0938 11.8438
z
" id="CMR17-116"/>
      <path d="
M30.9062 42.1094
C30.9062 43.9062 30.7969 44 30.2031 44
C29.7969 44 29.7031 43.9062 28.5 42.4219
C28.2031 42.0156 27.2969 41.0156 27 40.625
C23.7969 44 19.2969 44 17.5938 44
C6.5 44 2.5 38.1719 2.5 32.375
C2.5 23.3438 12.7031 21.25 15.5938 20.6406
C21.9062 19.3438 24.0938 18.9375 26.2031 17.125
C27.5 15.9375 29.7031 13.7344 29.7031 10.125
C29.7031 5.90625 27.2969 0.5 18.0938 0.5
C9.40625 0.5 6.29688 7.0625 4.5 15.8281
C4.20312 17.2188 4.20312 17.3281 3.40625 17.3281
C2.59375 17.3281 2.5 17.2188 2.5 15.2344
L2.5 0.890625
C2.5 -0.890625 2.59375 -1 3.20312 -1
C3.70312 -1 3.79688 -0.890625 4.29688 -0.09375
C4.90625 0.796875 6.40625 3.1875 7 4.1875
C9 1.54688 12.5 -1 18.0938 -1
C28 -1 33.2969 4.40625 33.2969 12.2344
C33.2969 17.3438 30.5938 20.0625 29.2969 21.25
C26.2969 24.375 22.7969 25.0625 18.5938 25.8594
C13.0938 27.0781 6.09375 28.4688 6.09375 34.5938
C6.09375 37.1875 7.5 42.7188 17.5938 42.7188
C28.2969 42.7188 28.9062 32.75 29.0938 29.5625
C29.2031 29.0781 29.7031 28.9688 30 28.9688
C30.9062 28.9688 30.9062 29.2812 30.9062 30.9688
z
" id="CMR17-115"/>
      <path d="
M15 23.3906
C15 33 19.0938 42 26.5938 42
C27.2969 42 28 41.9062 28.7031 41.5938
C28.7031 41.5938 26.5 40.8906 26.5 38.3125
C26.5 35.9062 28.4062 34.9062 29.9062 34.9062
C31.0938 34.9062 33.2969 35.6094 33.2969 38.4062
C33.2969 41.6094 30.0938 43.5938 26.7031 43.5938
C19.0938 43.5938 15.7969 36.2031 14.7969 32.7031
L14.7031 32.7031
L14.7031 43.5938
L3.09375 42.5
L3.09375 39.9062
C9 39.9062 9.90625 39.2969 9.90625 34.5
L9.90625 6.6875
C9.90625 2.875 9.5 2.39062 3.09375 2.39062
L3.09375 -0.203125
C5.5 0 10.0938 0 12.7031 0
C15.5938 0 20.7031 0 23.4062 -0.203125
L23.4062 2.39062
C16.2031 2.39062 15 2.39062 15 6.875
z
" id="CMR17-114"/>
      <path d="
M43.0938 21.1875
C43.0938 34 33.7969 44 22.9062 44
C12 44 2.70312 34 2.70312 21.1875
C2.70312 8.60938 12 -1 22.9062 -1
C33.7969 -1 43.0938 8.60938 43.0938 21.1875
M22.9062 0.796875
C18.2031 0.796875 14.2031 3.59375 11.9062 7.5
C9.40625 11.9844 9.09375 17.5938 9.09375 22
C9.09375 26.2031 9.29688 31.4062 11.9062 35.9062
C13.9062 39.2031 17.7969 42.4062 22.9062 42.4062
C27.4062 42.4062 31.2031 39.9062 33.5938 36.4062
C36.7031 31.7031 36.7031 25.1094 36.7031 22
C36.7031 18.0938 36.5 12.1094 33.7969 7.29688
C31 2.70312 26.7031 0.796875 22.9062 0.796875" id="CMR17-111"/>
      <path d="
M15 68.6875
L3.09375 67.5938
L3.09375 65
C9 65 9.90625 64.4062 9.90625 59.6406
L9.90625 -0.203125
L11.7031 -0.203125
L14.5938 6.89062
C17.5 2.20312 21.7969 -1 27.5938 -1
C37.5938 -1 47.7031 7.8125 47.7031 21.4062
C47.7031 34.1875 38.7031 43.5938 28.5938 43.5938
C22.4062 43.5938 18 40.2969 15 36.4062
z

M15.2031 31.3125
C15.2031 33.0938 15.2031 33.4062 16.5938 35.5
C20.5 41.5156 26.0938 42 28 42
C31 42 41.2969 40.3906 41.2969 21.5
C41.2969 1.6875 29.5 0.59375 27.0938 0.59375
C24 0.59375 19.5 1.78125 16.2969 7.59375
C15.2031 9.5 15.2031 9.70312 15.2031 11.4844
z
" id="CMR17-98"/>
      <path d="
M36 25.8281
C36 32.375 36 35.8438 31.7969 39.7344
C28.0938 43 23.7969 44 20.4062 44
C12.5 44 6.79688 37.6094 6.79688 30.7969
C6.79688 27 9.79688 27 10.4062 27
C11.7031 27 14 27.7812 14 30.5312
C14 33 12.0938 34.0781 10.4062 34.0781
C10 34.0781 9.5 33.9688 9.20312 33.875
C11.2969 40.5 16.7031 42.4062 20.2031 42.4062
C25.2031 42.4062 30.7031 37.9531 30.7031 29.4531
L30.7031 25
C24.7969 25 17.7031 24.2031 12.0938 21.2031
C5.79688 17.7031 4 12.7031 4 8.90625
C4 1.20312 13 -1 18.2969 -1
C23.7969 -1 28.9062 2.17188 31.0938 7.98438
C31.2969 3.64062 34.0938 -0.28125 38.5 -0.28125
C40.5938 -0.28125 45.9062 1.09375 45.9062 8.85938
L45.9062 14.375
L44.0938 14.375
L44.0938 8.78125
C44.0938 2.78125 41.4062 2 40.0938 2
C36 2 36 7.15625 36 11.5312
z

M30.7031 13.5938
C30.7031 4.95312 24.5 0.59375 19 0.59375
C14 0.59375 10.0938 4.29688 10.0938 8.90625
C10.0938 11.8906 11.4062 17.1875 17.2031 20.3906
C22 23.0938 27.5 23.5 30.7031 23.5
z
" id="CMR17-97"/>
      <path d="
M41.5 30.2031
C41.5 35.2969 40.5 43.5938 28.7031 43.5938
C20.7969 43.5938 16.7031 37.5 15.2031 33.5
L15.0938 33.5
L15.0938 43.5938
L3.29688 42.5
L3.29688 39.9062
C9.20312 39.9062 10.0938 39.2969 10.0938 34.5
L10.0938 6.6875
C10.0938 2.875 9.70312 2.39062 3.29688 2.39062
L3.29688 -0.203125
C5.70312 0 10.0938 0 12.7031 0
C15.2969 0 19.7969 0 22.2031 -0.203125
L22.2031 2.39062
C15.7969 2.39062 15.4062 2.78125 15.4062 6.6875
L15.4062 25.9062
C15.4062 35.1094 21 42 28 42
C35.4062 42 36.2031 35.4062 36.2031 30.5938
L36.2031 6.6875
C36.2031 2.875 35.7969 2.39062 29.4062 2.39062
L29.4062 -0.203125
C31.7969 0 36.2031 0 38.7969 0
C41.4062 0 45.9062 0 48.2969 -0.203125
L48.2969 2.39062
C41.9062 2.39062 41.5 2.78125 41.5 6.6875
z
" id="CMR17-110"/>
      <path d="
M17 10.7969
C13.5 4.90625 10.0938 2.90625 5.29688 2.90625
C4.20312 2.90625 3.40625 2.90625 3.40625 1.04688
C3.40625 0.421875 3.90625 0 4.59375 0
C6.40625 0 10.9062 0 12.7031 0
C15.5938 0 18.7969 0 21.5938 0
C22.2031 0 23.4062 0 23.4062 1.90625
C23.4062 2.8125 22.5938 2.90625 22 2.90625
C19.7031 3.10938 17.7969 3.89062 17.7969 6.21875
C17.7969 7.59375 18.4062 8.67188 19.7031 10.8281
L27.2969 23.1094
L52.7969 23.1094
C52.9062 22.2344 52.9062 21.4375 53 20.5469
C53.2969 17.9844 54.5 7.73438 54.5 5.875
C54.5 2.90625 49.4062 2.90625 47.7969 2.90625
C46.7031 2.90625 45.5938 2.90625 45.5938 1.09375
C45.5938 0 46.5 0 47.0938 0
C48.7969 0 50.7969 0 52.5 0
L58.2031 0
C64.2969 0 68.7031 0 68.7969 0
C69.5 0 70.5938 0 70.5938 1.90625
C70.5938 2.90625 69.7031 2.90625 68.2031 2.90625
C62.7031 2.90625 62.5938 3.8125 62.2969 6.78125
L56.2031 68.8125
C56 70.7969 55.5938 71 54.5 71
C53.5 71 52.9062 70.7969 52 69.2969
z

M29 26
L49.0938 59.6719
L52.5 26
z
" id="CMMI12-65"/>
     </defs>
     <g transform="translate(750.889710096 511.143712922)scale(0.36 -0.36)">
      <use transform="scale(0.9962640099626402)" xlink:href="#CMR17-97"/>
      <use transform="translate(45.69047711706103 0.0)scale(0.9962640099626402)" xlink:href="#CMR17-98"/>
      <use transform="translate(96.58584689737704 0.0)scale(0.9962640099626402)" xlink:href="#CMR17-115"/>
      <use transform="translate(132.38718453261208 0.0)scale(0.9962640099626402)" xlink:href="#CMR17-111"/>
      <use transform="translate(178.07766164967313 0.0)scale(0.9962640099626402)" xlink:href="#CMR17-114"/>
      <use transform="translate(213.35842944913608 0.0)scale(0.9962640099626402)" xlink:href="#CMR17-112"/>
      <use transform="translate(264.25379922945206 0.0)scale(0.9962640099626402)" xlink:href="#CMR17-116"/>
      <use transform="translate(299.53456702891503 0.0)scale(0.9962640099626402)" xlink:href="#CMR17-105"/>
      <use transform="translate(324.40562551077994 0.0)scale(0.9962640099626402)" xlink:href="#CMR17-111"/>
      <use transform="translate(370.09610262784093 0.0)scale(0.9962640099626402)" xlink:href="#CMR17-110"/>
      <use transform="translate(451.0674387550592 0.0)scale(0.9962640099626402)" xlink:href="#CMMI12-65"/>
     </g>
    </g>
    <g id="line2d_18">
     <path d="
M660.89 548.72
L711.29 548.72" style="fill:none;stroke:#00008b;stroke-linecap:square;stroke-width:2;"/>
    </g>
    <g id="line2d_19"/>
    <g id="text_17">
     <!-- dark field $B$ -->
     <defs>
      <path d="
M36.5938 61.1875
C37.5 64.9062 37.9062 65.1094 41.7969 65.1094
L54.7969 65.1094
C66.0938 65.1094 66.0938 55.4375 66.0938 54.5312
C66.0938 46.375 58 36 44.7969 36
L30.4062 36
z

M53.5 35.2031
C64.4062 37.2188 74.2969 44.8594 74.2969 54.125
C74.2969 61.9688 67.4062 68 56.0938 68
L24 68
C22.0938 68 21.2031 68 21.2031 66.1094
C21.2031 65.1094 22.0938 65.1094 23.5938 65.1094
C29.7031 65.1094 29.7031 64.3125 29.7031 63.2031
C29.7031 63.0156 29.7031 62.4062 29.2969 60.9219
L15.7969 7.375
C14.9062 3.89062 14.7031 2.89062 7.70312 2.89062
C5.79688 2.89062 4.79688 2.89062 4.79688 1.09375
C4.79688 0 5.40625 0 7.40625 0
L41.7031 0
C57 0 68.7969 11.4375 68.7969 21.4062
C68.7969 29.4844 61.5938 34.4219 53.5 35.2031
M39.2969 2.89062
L25.7969 2.89062
C24.4062 2.89062 24.2031 2.89062 23.5938 3
C22.5 3.09375 22.4062 3.29688 22.4062 4.07812
C22.4062 4.76562 22.5938 5.35938 22.7969 6.23438
L29.7969 34
L48.5938 34
C60.4062 34 60.4062 23.1719 60.4062 22.3906
C60.4062 12.9375 51.7031 2.89062 39.2969 2.89062" id="CMMI12-66"/>
      <path d="
M26.0938 26.1406
C26 26.3438 25.5 26.9375 25.5 27.2344
C25.5 27.4375 32.5938 33.9219 33.5 34.7188
C39.2031 39.5 42.7969 40 45.4062 40
L45.4062 42.6875
C44.7969 42.6875 44.5938 42.6875 44.5 42.6875
L39.5938 42.6875
C36.7969 42.6875 32.5 42.6875 29.7969 42.6875
L29.7969 40.0938
C31.2031 39.9844 32.2031 39.1875 32.2031 37.7969
C32.2031 35.8125 30.2031 33.9219 30.0938 33.9219
L15 20.1562
L15 68.6875
L3.09375 67.5938
L3.09375 65
C9 65 9.90625 64.4062 9.90625 59.6406
L9.90625 6.65625
C9.90625 2.875 9.5 2.39062 3.09375 2.39062
L3.09375 -0.203125
C5.5 0 9.90625 0 12.4062 0
C14.9062 0 19.2969 0 21.7031 -0.203125
L21.7031 2.39062
C15.2969 2.39062 14.9062 2.78125 14.9062 6.6875
L14.9062 17.6562
L21.7969 23.9375
L31.9062 8.96875
C33.0938 7.17188 34.0938 5.76562 34.0938 4.46875
C34.0938 2.6875 32.2969 2.39062 31.0938 2.39062
L31.0938 -0.203125
C33.5 0 37.7969 0 40.2969 0
C42.0938 0 45.7969 0 47.5 0
L47.5 2.39062
C42.7969 2.39062 41.7031 3.28125 38.7031 7.67188
z
" id="CMR17-107"/>
      <path d="
M29.2031 67.5938
L29.2031 65
C35.0938 65 36 64.4062 36 59.6875
L36 36.6406
C35.5938 37.1406 31.5 43.5938 23.4062 43.5938
C13.2031 43.5938 3.29688 34.5 3.29688 21.3125
C3.29688 8.20312 12.5938 -1 22.4062 -1
C30.9062 -1 35.2969 5.26562 35.7969 5.9375
L35.7969 -0.984375
L47.9062 -0.984375
L47.9062 2
C42 2 41.0938 2.59375 41.0938 7.39062
L41.0938 68.6875
z

M35.7969 11.7969
C35.7969 8.79688 34 6.09375 31.7031 4.09375
C28.2969 1.09375 24.9062 0.59375 23 0.59375
C20.0938 0.59375 9.70312 2.09375 9.70312 21.1875
C9.70312 40.8125 21.2969 42 23.9062 42
C28.5 42 32.2031 39.4062 34.5 35.7969
C35.7969 33.7031 35.7969 33.4062 35.7969 31.6094
z
" id="CMR17-100"/>
      <path d="
M39.9062 43.1875
C37.5 43.1875 30.0938 43.1875 28.2031 42.7969
C27.5938 42.5781 27.4062 42.5781 26.2031 42.5781
L14.7969 42.5781
L14.7969 54.2031
C14.7969 63.6406 22.4062 68 28.4062 68
C30.2969 68 34.5938 67.5 36.7969 64.0781
C35.7969 64.0781 32.5938 64.0781 32.5938 60.5938
C32.5938 58.2031 34.2031 57 36.2031 57
C38 57 39.7969 58 39.7969 60.7031
C39.7969 65.7031 35 69.5938 28.7969 69.5938
C20.9062 69.5938 9.90625 65.125 9.90625 54.2031
L9.90625 42.5781
L1.90625 42.5781
L1.90625 40
L9.90625 40
L9.90625 6.67188
C9.90625 2.875 9.5 2.39062 3.09375 2.39062
L3.09375 -0.203125
C5.5 0 9.90625 0 12.4062 0
C15 0 19.4062 0 21.7969 -0.203125
L21.7969 2.39062
C15.4062 2.39062 15 2.78125 15 6.67188
L15 40
L29.7031 40
C34 40 34.7969 39.0938 34.7969 34.7188
L34.7969 6.67188
C34.7969 2.875 34.4062 2.39062 28 2.39062
L28 -0.203125
C30.4062 0 34.7969 0 37.2969 0
C39.9062 0 44.2969 0 46.7031 -0.203125
L46.7031 2.39062
C40.2969 2.39062 39.9062 2.78125 39.9062 6.64062
z
" id="CMR17-12"/>
     </defs>
     <g transform="translate(750.889710096 561.319856461)scale(0.36 -0.36)">
      <use transform="scale(0.9962640099626402)" xlink:href="#CMR17-100"/>
      <use transform="translate(50.89536978031601 0.0)scale(0.9962640099626402)" xlink:href="#CMR17-97"/>
      <use transform="translate(96.58584689737704 0.0)scale(0.9962640099626402)" xlink:href="#CMR17-114"/>
      <use transform="translate(131.86661469683997 0.0)scale(0.9962640099626402)" xlink:href="#CMR17-107"/>
      <use transform="translate(210.23549689153955 0.0)scale(0.9962640099626402)" xlink:href="#CMR17-12"/>
      <use transform="translate(259.97772026774595 0.0)scale(0.9962640099626402)" xlink:href="#CMR17-101"/>
      <use transform="translate(300.46338073046394 0.0)scale(0.9962640099626402)" xlink:href="#CMR17-108"/>
      <use transform="translate(325.3344392123288 0.0)scale(0.9962640099626402)" xlink:href="#CMR17-100"/>
      <use transform="translate(406.30577533954704 0.0)scale(0.9962640099626402)" xlink:href="#CMMI12-66"/>
     </g>
    </g>
   </g>
  </g>
 </g>
 <defs>
  <clipPath id="p048f99bc99">
   <rect height="533.952" width="837.0" x="135.0" y="66.744"/>
  </clipPath>
 </defs>
</svg>
